<svg xmlns="http://www.w3.org/2000/svg" width="8.5mm" height="8.5mm" viewBox="0 0 1000 1000">
  <path d="M322.91 139.39l-6.51 6.51v36.57c0 40.02 1.15 45.38 10.53 49.59 9 4.02 18 2.87 24.13-3.25l5.55-5.55v-37.53c0-40.59-.96-45.57-9.77-50.17-9.18-4.59-16.65-3.44-23.93 3.83zM109.81 225.55c-9.19 4.98-12.25 17.42-7.08 27.57 1.53 2.87 13.4 15.7 26.42 28.53 18.76 18.19 25.27 23.55 30.63 24.51 13.79 2.68 26.23-9.77 23.55-23.55-.96-5.36-6.32-11.87-24.51-30.64-12.83-13.02-25.66-24.89-28.53-26.42-6.51-3.25-14.55-3.25-20.48 0zM518.02 250.25c-27.19 27.19-27.38 27.38-27.38 36.19 0 10.34 6.32 18 16.27 19.91 9.38 1.72 14.55-2.11 41.74-29.49 24.32-24.51 24.32-24.7 24.32-33.7 0-12.45-7.47-20.3-19.34-20.3-8.04.01-9 .59-35.61 27.39z"/>
  <path d="M302.04 258.3c-42.89 8.04-79.27 27.19-109.33 57.25-67.78 67.59-79.27 170.98-28.34 253.5 5.74 9.38 17.04 22.59 30.83 36.38l21.64 21.64-3.83 7.47c-12.64 24.7-18 65.1-12.64 95.35 11.3 65.1 56.1 114.12 121.2 132.88l14.93 4.4h218.27c242.4 0 230.34.57 269.01-12.83 102.63-35.8 170.41-135.18 166-242.78-2.87-66.63-28.34-123.5-76.01-169.07-48.25-46.53-105.31-69.31-172.32-68.93-62.99.19-120.82 22.78-166 64.52l-13.59 12.64-5.55-5.17c-2.87-3.06-8.04-7.66-11.3-10.34-4.6-3.83-6.32-7.28-8.23-17.04-7.66-39.06-28.91-76.78-59.74-106.07-26.61-25.27-55.72-41.55-91.71-50.74-21.63-5.55-61.65-7.09-83.29-3.06zm75.44 43.27c28.72 7.28 56.67 23.74 77.16 45.19 10.53 11.1 26.42 33.89 30.06 43.08.96 2.3 3.06 7.47 4.79 11.3l2.87 6.89-22.59-.96c-27.76-1.15-45.38 2.3-67.21 13.21-26.61 13.4-52.46 41.55-63.38 69.12-4.4 11.3-9.38 34.85-9.38 44.8 0 3.64-1.15 6.89-2.3 7.28-34.66 10.34-54.76 20.68-74.29 38.87l-13.01 12.06-13.6-12.64c-47.48-44.04-64.91-109.9-45-170.6 19.34-59.55 71.42-102.82 133.65-111.63 16.28-2.29 44.81-.38 62.23 4.03zm419.51 119.28c57.82 16.09 106.65 57.06 132.11 110.86 34.66 72.57 23.93 158.92-27 220.19-31.59 37.91-73.52 62.42-123.31 72.37-19.72 4.02-427.55 4.02-443.25 0-52.08-13.02-89.8-55.72-95.54-107.8-4.21-39.44 10.34-78.12 39.44-104.92 18.19-16.47 37.53-25.66 67.97-31.98l24.51-4.98-.19-26.04c-.19-21.25.38-28.34 3.64-37.91 20.3-63.57 99.76-84.63 148.2-39.25 5.17 4.79 15.51 15.89 22.98 24.7l13.59 16.08 26.04-26.62c27-27.76 40.4-37.91 65.1-50.17 33.12-16.47 56.1-21.25 96.88-20.3 25.66.6 33.7 1.56 48.83 5.77zM16.56 445.74c-7.28 7.28-8.42 14.74-3.83 23.93 4.6 8.81 9.57 9.77 50.17 9.77h37.53l5.55-5.55c6.32-6.32 7.47-15.89 2.87-24.89-4.6-8.81-9.77-9.77-49.21-9.77H23.07l-6.51 6.51z"/>
  <path d="M127.42 640.85c-26.81 26.61-27.38 27.57-27.38 35.61 0 11.87 7.85 19.34 20.3 19.34 9 0 9.19 0 33.7-24.51 27.38-27 31.21-32.17 29.49-41.55-1.92-9.96-9.57-16.27-19.91-16.27-8.82 0-9.01.19-36.2 27.38z"/>
</svg>
